{
	"asset":{
		"generator":"Khronos glTF Blender I/O v4.0.44",
		"version":"2.0"
	},
	"scene":0,
	"scenes":[
		{
			"name":"Scene",
			"nodes":[
				0,
				1,
				33
			]
		}
	],
	"nodes":[
		{
			"name":"Empty",
			"rotation":[
				0,
				0.7071066498756409,
				-0.70710688829422,
				5.3385068810030134e-08
			],
			"translation":[
				2.0504047870635986,
				-2.2968175411224365,
				0
			]
		},
		{
			"name":"Empty.001",
			"rotation":[
				0.5000000596046448,
				0.4999999403953552,
				-0.5,
				0.5000000596046448
			],
			"translation":[
				0.019248778000473976,
				-2.2968175411224365,
				5.312348365783691
			]
		},
		{
			"name":"Ear.L.002",
			"rotation":[
				0.05541954189538956,
				0.001135622733272612,
				0.010406662710011005,
				0.998408317565918
			],
			"scale":[
				1,
				0.9999999403953552,
				1.0000001192092896
			],
			"translation":[
				-3.725290298461914e-09,
				0.5452141761779785,
				-8.940696716308594e-08
			]
		},
		{
			"children":[
				2
			],
			"name":"Ear.L.001",
			"rotation":[
				0.029762448742985725,
				-0.000704183999914676,
				0.0019887511152774096,
				0.9995547533035278
			],
			"scale":[
				0.9999998807907104,
				1,
				0.9999998807907104
			],
			"translation":[
				-2.2351741790771484e-08,
				0.5802991986274719,
				-9.685754776000977e-08
			]
		},
		{
			"children":[
				3
			],
			"name":"Ear.L",
			"rotation":[
				-0.13351400196552277,
				0.05688035488128662,
				-0.13522577285766602,
				0.9801289439201355
			],
			"scale":[
				1,
				0.9999999403953552,
				0.9999999403953552
			],
			"translation":[
				0.6268075108528137,
				1.716295599937439,
				0.0193150844424963
			]
		},
		{
			"name":"Ear.R.002",
			"rotation":[
				0.05541956424713135,
				-0.0011356159811839461,
				-0.010406640358269215,
				0.998408317565918
			],
			"scale":[
				0.9999999403953552,
				0.9999998807907104,
				0.9999999403953552
			],
			"translation":[
				-8.009374141693115e-08,
				0.5452145338058472,
				6.705522537231445e-08
			]
		},
		{
			"children":[
				5
			],
			"name":"Ear.R.001",
			"rotation":[
				0.029762430116534233,
				0.0007041849312372506,
				-0.0019887243397533894,
				0.9995547533035278
			],
			"scale":[
				0.9999998211860657,
				1,
				0.9999999403953552
			],
			"translation":[
				-3.818422555923462e-08,
				0.5802993774414062,
				-3.725290298461914e-08
			]
		},
		{
			"children":[
				6
			],
			"name":"Ear.R",
			"rotation":[
				-0.13351403176784515,
				-0.05688059702515602,
				0.13522569835186005,
				0.9801288843154907
			],
			"scale":[
				1,
				0.9999998807907104,
				0.9999999403953552
			],
			"translation":[
				-0.6268075108528137,
				1.716295599937439,
				0.019314786419272423
			]
		},
		{
			"children":[
				4,
				7
			],
			"name":"Head",
			"rotation":[
				0.9752044081687927,
				1.2750658005562104e-14,
				2.3250706249200448e-07,
				0.2213059961795807
			],
			"scale":[
				1,
				1.0000001192092896,
				1.0000005960464478
			],
			"translation":[
				3.3375558752531207e-15,
				0.008561767637729645,
				-8.288770914077759e-08
			]
		},
		{
			"children":[
				8
			],
			"name":"spine.004",
			"rotation":[
				-0.9711793661117554,
				2.841353108351541e-08,
				-1.1577359515513308e-07,
				0.23834988474845886
			],
			"scale":[
				1,
				1.0000001192092896,
				1.0000007152557373
			],
			"translation":[
				-2.3161057151484775e-23,
				0.2330683171749115,
				-1.862645149230957e-09
			]
		},
		{
			"name":"hand.L",
			"rotation":[
				-0.028303127735853195,
				0.01575923152267933,
				0.0012002260191366076,
				0.9994744658470154
			],
			"scale":[
				1.0000001192092896,
				1.000000238418579,
				0.9999999403953552
			],
			"translation":[
				1.998268999159336e-07,
				0.3836129307746887,
				5.587935447692871e-09
			]
		},
		{
			"children":[
				10
			],
			"name":"forearm.L",
			"rotation":[
				0.010738104581832886,
				-0.10778840631246567,
				0.0037189575377851725,
				0.9941089153289795
			],
			"scale":[
				0.9999998807907104,
				0.9999999403953552,
				0.9999998807907104
			],
			"translation":[
				1.0659277904778719e-08,
				0.4678642153739929,
				1.210719347000122e-08
			]
		},
		{
			"children":[
				11
			],
			"name":"upper_arm.L",
			"rotation":[
				0.16237756609916687,
				0.7697188258171082,
				0.056008413434028625,
				0.614841103553772
			],
			"scale":[
				1.0000001192092896,
				0.9999999403953552,
				1
			],
			"translation":[
				0.027332372963428497,
				0.5729116797447205,
				-0.0032757632434368134
			]
		},
		{
			"children":[
				12
			],
			"name":"shoulder.L",
			"rotation":[
				-0.6302796602249146,
				-0.38734298944473267,
				-0.5053561925888062,
				0.44421637058258057
			],
			"scale":[
				1.000000238418579,
				1.0000001192092896,
				1.000000238418579
			],
			"translation":[
				0.018300000578165054,
				0.17810019850730896,
				0.07852473855018616
			]
		},
		{
			"name":"hand.R",
			"rotation":[
				-0.028303127735853195,
				-0.01575923152267933,
				-0.0012002260191366076,
				0.9994744658470154
			],
			"scale":[
				1.0000001192092896,
				1.000000238418579,
				0.9999999403953552
			],
			"translation":[
				-1.998268999159336e-07,
				0.3836129307746887,
				5.587935447692871e-09
			]
		},
		{
			"children":[
				14
			],
			"name":"forearm.R",
			"rotation":[
				0.010738104581832886,
				0.10778840631246567,
				-0.0037189575377851725,
				0.9941089153289795
			],
			"scale":[
				0.9999998807907104,
				0.9999999403953552,
				0.9999998807907104
			],
			"translation":[
				-1.0659277904778719e-08,
				0.4678642153739929,
				1.210719347000122e-08
			]
		},
		{
			"children":[
				15
			],
			"name":"upper_arm.R",
			"rotation":[
				0.16237756609916687,
				-0.7697188258171082,
				-0.056008413434028625,
				0.614841103553772
			],
			"scale":[
				1.0000001192092896,
				0.9999999403953552,
				1
			],
			"translation":[
				-0.027332372963428497,
				0.5729116797447205,
				-0.0032757632434368134
			]
		},
		{
			"children":[
				16
			],
			"name":"shoulder.R",
			"rotation":[
				-0.6302796602249146,
				0.38734298944473267,
				0.5053561925888062,
				0.44421637058258057
			],
			"scale":[
				1.000000238418579,
				1.0000001192092896,
				1.000000238418579
			],
			"translation":[
				-0.018300000578165054,
				0.17810019850730896,
				0.07852473855018616
			]
		},
		{
			"children":[
				9,
				13,
				17
			],
			"name":"spine.003",
			"rotation":[
				-0.0005687280208803713,
				-1.1920926823449918e-07,
				-6.779823230607107e-11,
				0.9999998807907104
			],
			"scale":[
				0.9999999403953552,
				1,
				1
			],
			"translation":[
				-5.744797147449359e-17,
				0.2448682337999344,
				1.862645149230957e-09
			]
		},
		{
			"children":[
				18
			],
			"name":"spine.002",
			"rotation":[
				-0.04245855286717415,
				1.191017915402881e-07,
				-5.061453034471697e-09,
				0.9990982413291931
			],
			"scale":[
				0.9999999403953552,
				0.9999998807907104,
				0.9999998807907104
			],
			"translation":[
				-1.5799149699762829e-22,
				0.2690625786781311,
				-5.558831617236137e-09
			]
		},
		{
			"children":[
				19
			],
			"name":"spine.001",
			"rotation":[
				-0.09477174282073975,
				-1.1867273741472673e-07,
				-1.12976659139008e-08,
				0.9954990148544312
			],
			"scale":[
				1,
				1,
				0.9999999403953552
			],
			"translation":[
				-8.881784197001252e-16,
				0.15221941471099854,
				1.862645149230957e-09
			]
		},
		{
			"name":"pelvis.L",
			"rotation":[
				-0.4529321491718292,
				-0.6131591796875,
				-0.4593193233013153,
				0.45597603917121887
			],
			"scale":[
				0.9999998807907104,
				1,
				1
			],
			"translation":[
				2.6645352591003757e-15,
				-3.818422555923462e-08,
				-3.725290298461914e-09
			]
		},
		{
			"name":"pelvis.R",
			"rotation":[
				-0.45293232798576355,
				0.6131590604782104,
				0.45931917428970337,
				0.4559762477874756
			],
			"scale":[
				0.9999998211860657,
				0.9999997019767761,
				0.9999997615814209
			],
			"translation":[
				2.6645352591003757e-15,
				-3.818422555923462e-08,
				-3.725290298461914e-09
			]
		},
		{
			"name":"shin.L",
			"rotation":[
				0.13586552441120148,
				1.2398190563089884e-07,
				5.905869571165567e-08,
				0.9907273054122925
			],
			"scale":[
				1,
				0.9999999403953552,
				1
			],
			"translation":[
				-3.1082507234714285e-08,
				0.34508785605430603,
				-3.7252834150791614e-09
			]
		},
		{
			"children":[
				23
			],
			"name":"thigh.L",
			"rotation":[
				0.9828072786331177,
				2.0509487441700003e-08,
				1.0917185022663034e-07,
				0.18463431298732758
			],
			"scale":[
				1,
				0.9999999403953552,
				1.0000007152557373
			],
			"translation":[
				0.5084348320960999,
				0.012777842581272125,
				0.04090535640716553
			]
		},
		{
			"name":"shin.R",
			"rotation":[
				0.13586576282978058,
				-1.1222589790804705e-07,
				2.6665796681868414e-08,
				0.9907273054122925
			],
			"scale":[
				0.9999999403953552,
				1,
				1
			],
			"translation":[
				8.812678231606696e-08,
				0.3450878858566284,
				3.725311170654777e-09
			]
		},
		{
			"children":[
				25
			],
			"name":"thigh.R",
			"rotation":[
				0.9828072786331177,
				2.0509482112629485e-08,
				1.0917182891034827e-07,
				0.18463444709777832
			],
			"scale":[
				1,
				0.9999999403953552,
				0.9999991655349731
			],
			"translation":[
				-0.5084348320960999,
				0.012777842581272125,
				0.04090511053800583
			]
		},
		{
			"name":"pelvis.L.002",
			"rotation":[
				-0.7871846556663513,
				-1.4703689998896152e-07,
				1.805275899472228e-14,
				0.6167173981666565
			],
			"translation":[
				1.3679429855528724e-07,
				0.10087402164936066,
				-0.5737570524215698
			]
		},
		{
			"name":"Tail",
			"rotation":[
				-0.7871846556663513,
				-9.02637949736114e-15,
				-1.8767944709452422e-07,
				0.6167173981666565
			],
			"translation":[
				1.3679429855528724e-07,
				0.10087402164936066,
				-0.5737570524215698
			]
		},
		{
			"children":[
				20,
				21,
				22,
				24,
				26,
				27,
				28
			],
			"name":"spine",
			"rotation":[
				0.1258196234703064,
				1.1826193002661967e-07,
				1.4998867925442028e-08,
				0.9920531511306763
			],
			"scale":[
				1,
				0.9999999403953552,
				0.9999998807907104
			],
			"translation":[
				0,
				0.7644528746604919,
				-0.0551999993622303
			]
		},
		{
			"name":"IK.L",
			"rotation":[
				0.004674289841204882,
				0.042580731213092804,
				-0.10901658982038498,
				0.9931164979934692
			],
			"scale":[
				1,
				1.0000001192092896,
				1.0000001192092896
			],
			"translation":[
				1.0598241090774536,
				5.003085136413574,
				-0.30354541540145874
			]
		},
		{
			"name":"IK.R",
			"rotation":[
				0.004674289841204882,
				-0.042580731213092804,
				0.10901658982038498,
				0.9931164979934692
			],
			"scale":[
				1,
				1.0000001192092896,
				1.0000001192092896
			],
			"translation":[
				-1.0598241090774536,
				5.003085136413574,
				-0.30354541540145874
			]
		},
		{
			"mesh":0,
			"name":"head.001",
			"skin":0
		},
		{
			"children":[
				32,
				29,
				30,
				31
			],
			"name":"metarig",
			"scale":[
				0.6546245813369751,
				0.6546245813369751,
				0.6546245813369751
			],
			"translation":[
				0,
				-0.05797619745135307,
				0
			]
		}
	],
	"animations":[
		{
			"channels":[
				{
					"sampler":0,
					"target":{
						"node":32,
						"path":"scale"
					}
				}
			],
			"name":"headAction.001",
			"samplers":[
				{
					"input":29,
					"interpolation":"LINEAR",
					"output":30
				}
			]
		}
	],
	"materials":[
		{
			"doubleSided":true,
			"name":"Material.001",
			"pbrMetallicRoughness":{}
		},
		{
			"doubleSided":true,
			"name":"Material.003",
			"pbrMetallicRoughness":{}
		},
		{
			"doubleSided":true,
			"name":"Material.002",
			"pbrMetallicRoughness":{
				"baseColorFactor":[
					0.7999992966651917,
					0.4088640511035919,
					0.608305037021637,
					1
				],
				"metallicFactor":0,
				"roughnessFactor":0.5
			}
		},
		{
			"doubleSided":true,
			"name":"Material.004",
			"pbrMetallicRoughness":{}
		}
	],
	"meshes":[
		{
			"name":"Cube.021",
			"primitives":[
				{
					"attributes":{
						"COLOR_0":0,
						"POSITION":1,
						"NORMAL":2,
						"TEXCOORD_0":3,
						"JOINTS_0":4,
						"WEIGHTS_0":5
					},
					"indices":6,
					"material":0
				},
				{
					"attributes":{
						"COLOR_0":7,
						"POSITION":8,
						"NORMAL":9,
						"TEXCOORD_0":10,
						"JOINTS_0":11,
						"WEIGHTS_0":12
					},
					"indices":13,
					"material":1
				},
				{
					"attributes":{
						"COLOR_0":14,
						"POSITION":15,
						"NORMAL":16,
						"TEXCOORD_0":17,
						"JOINTS_0":18,
						"WEIGHTS_0":19
					},
					"indices":20,
					"material":2
				},
				{
					"attributes":{
						"COLOR_0":21,
						"POSITION":22,
						"NORMAL":23,
						"TEXCOORD_0":24,
						"JOINTS_0":25,
						"WEIGHTS_0":26
					},
					"indices":27,
					"material":3
				}
			]
		}
	],
	"skins":[
		{
			"inverseBindMatrices":28,
			"joints":[
				29,
				20,
				19,
				18,
				9,
				8,
				4,
				3,
				2,
				7,
				6,
				5,
				13,
				12,
				11,
				10,
				17,
				16,
				15,
				14,
				21,
				22,
				24,
				23,
				26,
				25,
				27,
				28,
				30,
				31
			],
			"name":"metarig"
		}
	],
	"accessors":[
		{
			"bufferView":0,
			"componentType":5123,
			"count":1008,
			"normalized":true,
			"type":"VEC4"
		},
		{
			"bufferView":1,
			"componentType":5126,
			"count":1008,
			"max":[
				1.0888113975524902,
				3.4007763862609863,
				0.7746726274490356
			],
			"min":[
				-1.0888116359710693,
				-0.10673559457063675,
				-0.7274667024612427
			],
			"type":"VEC3"
		},
		{
			"bufferView":2,
			"componentType":5126,
			"count":1008,
			"type":"VEC3"
		},
		{
			"bufferView":3,
			"componentType":5126,
			"count":1008,
			"type":"VEC2"
		},
		{
			"bufferView":4,
			"componentType":5121,
			"count":1008,
			"type":"VEC4"
		},
		{
			"bufferView":5,
			"componentType":5126,
			"count":1008,
			"type":"VEC4"
		},
		{
			"bufferView":6,
			"componentType":5123,
			"count":4752,
			"type":"SCALAR"
		},
		{
			"bufferView":7,
			"componentType":5123,
			"count":250,
			"normalized":true,
			"type":"VEC4"
		},
		{
			"bufferView":8,
			"componentType":5126,
			"count":250,
			"max":[
				0.5282949209213257,
				1.7394185066223145,
				0.696052074432373
			],
			"min":[
				-0.5282949209213257,
				1.3221020698547363,
				0.5294327735900879
			],
			"type":"VEC3"
		},
		{
			"bufferView":9,
			"componentType":5126,
			"count":250,
			"type":"VEC3"
		},
		{
			"bufferView":10,
			"componentType":5126,
			"count":250,
			"type":"VEC2"
		},
		{
			"bufferView":11,
			"componentType":5121,
			"count":250,
			"type":"VEC4"
		},
		{
			"bufferView":12,
			"componentType":5126,
			"count":250,
			"type":"VEC4"
		},
		{
			"bufferView":13,
			"componentType":5123,
			"count":1152,
			"type":"SCALAR"
		},
		{
			"bufferView":14,
			"componentType":5123,
			"count":493,
			"normalized":true,
			"type":"VEC4"
		},
		{
			"bufferView":15,
			"componentType":5126,
			"count":493,
			"max":[
				0.8919486403465271,
				3.2185795307159424,
				0.7189044952392578
			],
			"min":[
				-0.8919487595558167,
				0.32852253317832947,
				-0.7734235525131226
			],
			"type":"VEC3"
		},
		{
			"bufferView":16,
			"componentType":5126,
			"count":493,
			"type":"VEC3"
		},
		{
			"bufferView":17,
			"componentType":5126,
			"count":493,
			"type":"VEC2"
		},
		{
			"bufferView":18,
			"componentType":5121,
			"count":493,
			"type":"VEC4"
		},
		{
			"bufferView":19,
			"componentType":5126,
			"count":493,
			"type":"VEC4"
		},
		{
			"bufferView":20,
			"componentType":5123,
			"count":2400,
			"type":"SCALAR"
		},
		{
			"bufferView":21,
			"componentType":5123,
			"count":158,
			"normalized":true,
			"type":"VEC4"
		},
		{
			"bufferView":22,
			"componentType":5126,
			"count":158,
			"max":[
				0.4709608852863312,
				1.470908284187317,
				0.6771650910377502
			],
			"min":[
				0.3973523676395416,
				1.394131064414978,
				0.6327019333839417
			],
			"type":"VEC3"
		},
		{
			"bufferView":23,
			"componentType":5126,
			"count":158,
			"type":"VEC3"
		},
		{
			"bufferView":24,
			"componentType":5126,
			"count":158,
			"type":"VEC2"
		},
		{
			"bufferView":25,
			"componentType":5121,
			"count":158,
			"type":"VEC4"
		},
		{
			"bufferView":26,
			"componentType":5126,
			"count":158,
			"type":"VEC4"
		},
		{
			"bufferView":27,
			"componentType":5123,
			"count":720,
			"type":"SCALAR"
		},
		{
			"bufferView":28,
			"componentType":5126,
			"count":30,
			"type":"MAT4"
		},
		{
			"bufferView":29,
			"componentType":5126,
			"count":1,
			"max":[
				0.041666666666666664
			],
			"min":[
				0.041666666666666664
			],
			"type":"SCALAR"
		},
		{
			"bufferView":30,
			"componentType":5126,
			"count":1,
			"type":"VEC3"
		}
	],
	"bufferViews":[
		{
			"buffer":0,
			"byteLength":8064,
			"byteOffset":0,
			"target":34962
		},
		{
			"buffer":0,
			"byteLength":12096,
			"byteOffset":8064,
			"target":34962
		},
		{
			"buffer":0,
			"byteLength":12096,
			"byteOffset":20160,
			"target":34962
		},
		{
			"buffer":0,
			"byteLength":8064,
			"byteOffset":32256,
			"target":34962
		},
		{
			"buffer":0,
			"byteLength":4032,
			"byteOffset":40320,
			"target":34962
		},
		{
			"buffer":0,
			"byteLength":16128,
			"byteOffset":44352,
			"target":34962
		},
		{
			"buffer":0,
			"byteLength":9504,
			"byteOffset":60480,
			"target":34963
		},
		{
			"buffer":0,
			"byteLength":2000,
			"byteOffset":69984,
			"target":34962
		},
		{
			"buffer":0,
			"byteLength":3000,
			"byteOffset":71984,
			"target":34962
		},
		{
			"buffer":0,
			"byteLength":3000,
			"byteOffset":74984,
			"target":34962
		},
		{
			"buffer":0,
			"byteLength":2000,
			"byteOffset":77984,
			"target":34962
		},
		{
			"buffer":0,
			"byteLength":1000,
			"byteOffset":79984,
			"target":34962
		},
		{
			"buffer":0,
			"byteLength":4000,
			"byteOffset":80984,
			"target":34962
		},
		{
			"buffer":0,
			"byteLength":2304,
			"byteOffset":84984,
			"target":34963
		},
		{
			"buffer":0,
			"byteLength":3944,
			"byteOffset":87288,
			"target":34962
		},
		{
			"buffer":0,
			"byteLength":5916,
			"byteOffset":91232,
			"target":34962
		},
		{
			"buffer":0,
			"byteLength":5916,
			"byteOffset":97148,
			"target":34962
		},
		{
			"buffer":0,
			"byteLength":3944,
			"byteOffset":103064,
			"target":34962
		},
		{
			"buffer":0,
			"byteLength":1972,
			"byteOffset":107008,
			"target":34962
		},
		{
			"buffer":0,
			"byteLength":7888,
			"byteOffset":108980,
			"target":34962
		},
		{
			"buffer":0,
			"byteLength":4800,
			"byteOffset":116868,
			"target":34963
		},
		{
			"buffer":0,
			"byteLength":1264,
			"byteOffset":121668,
			"target":34962
		},
		{
			"buffer":0,
			"byteLength":1896,
			"byteOffset":122932,
			"target":34962
		},
		{
			"buffer":0,
			"byteLength":1896,
			"byteOffset":124828,
			"target":34962
		},
		{
			"buffer":0,
			"byteLength":1264,
			"byteOffset":126724,
			"target":34962
		},
		{
			"buffer":0,
			"byteLength":632,
			"byteOffset":127988,
			"target":34962
		},
		{
			"buffer":0,
			"byteLength":2528,
			"byteOffset":128620,
			"target":34962
		},
		{
			"buffer":0,
			"byteLength":1440,
			"byteOffset":131148,
			"target":34963
		},
		{
			"buffer":0,
			"byteLength":1920,
			"byteOffset":132588
		},
		{
			"buffer":0,
			"byteLength":4,
			"byteOffset":134508
		},
		{
			"buffer":0,
			"byteLength":12,
			"byteOffset":134512
		}
	],
	"buffers":[
		{
			"byteLength":134524,
			"uri":"rabbit6.bin"
		}
	]
}
